<svg version="1.1" xmlns="http://www.w3.org/2000/svg" xmlns:xlink="http://www.w3.org/1999/xlink" width="38.4" height="45.6" viewBox="0,0,38.4,45.6"><g transform="translate(-220.8,-157.2)"><g data-paper-data="{&quot;isPaintingLayer&quot;:true}" fill-rule="nonzero" stroke-linecap="butt" stroke-linejoin="miter" stroke-miterlimit="10" stroke-dasharray="" stroke-dashoffset="0" style="mix-blend-mode: normal"><path d="M221.8,201.8v-43.6h36.4v43.6z" fill="#ffffff" stroke="#000000" stroke-width="2"/><path d="M238.5,172.4v-8.6h3v8.6z" fill="#000000" stroke="#000000" stroke-width="2"/><path d="M233.5,172.03334v-0.66667h13.2v0.66667z" fill="#ffffff" stroke="#000000" stroke-width="2"/><path d="M238.05,187.1v-14.2h3.9v14.2z" fill="#ffffff" stroke="#000000" stroke-width="0.5"/><path d="M238.9,192.6v-7.4h2.2v7.4z" fill="#ffffff" stroke="#000000" stroke-width="0.5"/><path d="M240.32693,182.07693c0,-0.13807 0.11193,-0.25 0.25,-0.25c0.13807,0 0.25,0.11193 0.25,0.25c0,0.13807 -0.11193,0.25 -0.25,0.25c-0.13807,0 -0.25,-0.11193 -0.25,-0.25z" fill="#ffffff" stroke="none" stroke-width="0.5"/><path d="M248.65625,188.73125c0,-0.13807 0.11193,-0.25 0.25,-0.25c0.13807,0 0.25,0.11193 0.25,0.25c0,0.13807 -0.11193,0.25 -0.25,0.25c-0.13807,0 -0.25,-0.11193 -0.25,-0.25z" fill="#ffffff" stroke="none" stroke-width="0.5"/><path d="M238.59375,186.35625c0,-0.05912 0.02052,-0.11345 0.05483,-0.15625c-0.03431,-0.0428 -0.05483,-0.09713 -0.05483,-0.15625c0,-0.05803 -0.00048,-0.11569 -0.00098,-0.17306c-0.16737,-0.24104 -0.14288,-0.63005 0.04891,-0.84868c0.00649,-0.03375 0.01381,-0.06754 0.02204,-0.10139c0,0 0.0187,-0.07479 0.07686,-0.13093c0.06718,-0.35657 0.31356,-0.67799 0.72635,-0.46349c0.10184,0.05292 0.1808,0.13226 0.2388,0.22836c0.18924,-0.15277 0.40963,-0.30375 0.65786,-0.44464c0.52276,0.09329 0.80333,0.30074 0.91536,0.62126c0.02156,0.00005 0.04316,0.00007 0.06481,0.00007c0,0 0.25,0 0.25,0.25c0,0.08668 -0.03005,0.1433 -0.06932,0.18029c-0.00306,0.01489 -0.00601,0.02376 -0.00601,0.02376c-0.10852,0.31595 -0.09402,0.57614 -0.07256,0.85948c0.00754,-0.00068 0.01517,-0.00103 0.02289,-0.00103c0.13807,0 0.25,0.11193 0.25,0.25c0,0.04554 -0.01217,0.08823 -0.03345,0.125c0.02127,0.03677 0.03345,0.07946 0.03345,0.125c0,0.13807 -0.11193,0.25 -0.25,0.25c-0.13807,0 -0.25,-0.11193 -0.25,-0.25c0,-0.03233 0.00614,-0.06323 0.01731,-0.09159l-0.01731,-0.00216l-0.03345,0.00418l-0.03652,0.1502c0,0 -0.06063,0.24254 -0.30317,0.1819c-0.24254,-0.06063 -0.1819,-0.30317 -0.1819,-0.30317l0.05691,-0.21991c-0.00133,-0.28856 -0.02102,-0.54939 0.01431,-0.80796c-0.34095,0.02547 -0.67498,0.05806 -1.01516,0.14282c-0.0803,0.18054 -0.20122,0.32956 -0.35439,0.40509v0.07377c0,0 0,0.23431 -0.22683,0.24925c0.00506,0.01268 0.00911,0.02587 0.01205,0.03948c0.02166,-0.00612 0.04452,-0.0094 0.06815,-0.0094c0.03081,0 0.06031,0.00557 0.08756,0.01576c0.04054,-0.08333 0.12603,-0.14076 0.22494,-0.14076c0.13807,0 0.25,0.11193 0.25,0.25c0,0.11876 -0.08281,0.21818 -0.19383,0.24367c-0.02549,0.11103 -0.12491,0.19383 -0.24367,0.19383c-0.06555,0 -0.1252,-0.02523 -0.16979,-0.0665c-0.09938,-0.01798 -0.17832,-0.0947 -0.19956,-0.1929c-0.02166,0.00612 -0.04452,0.0094 -0.06815,0.0094c-0.085,0 -0.16009,-0.04242 -0.20526,-0.10724c-0.06482,-0.04517 -0.10724,-0.12026 -0.10724,-0.20526zM240.44892,184.60258c-0.04935,0.03334 -0.10406,0.08284 -0.16312,0.14219c0.14237,-0.00865 0.28499,-0.01248 0.42861,-0.01399c-0.06187,-0.0541 -0.14798,-0.09759 -0.26549,-0.12819z" fill="#ffffff" stroke="none" stroke-width="0.5"/></g></g></svg>