<svg version="1.1" xmlns="http://www.w3.org/2000/svg" xmlns:xlink="http://www.w3.org/1999/xlink" width="48.34339" height="48.73421" viewBox="0,0,48.34339,48.73421"><defs><radialGradient cx="240" cy="180" r="23.9217" gradientUnits="userSpaceOnUse" id="color-1"><stop offset="0" stop-color="#000000" stop-opacity="0"/><stop offset="1" stop-color="#000000"/></radialGradient></defs><g transform="translate(-215.8283,-155.20543)"><g data-paper-data="{&quot;isPaintingLayer&quot;:true}" fill-rule="nonzero" stroke-linecap="butt" stroke-linejoin="miter" stroke-miterlimit="10" stroke-dasharray="" stroke-dashoffset="0" style="mix-blend-mode: normal"><path d="M251.7136,163.28869l5.42061,-6.6766l2.32905,1.89091l-5.42061,6.6766z" fill="#000000" stroke="#000000" stroke-width="2"/><path d="M248.06296,159.85252l0.4202,-0.51757l10.24781,8.32l-0.4202,0.51757z" fill="#ffffff" stroke="#000000" stroke-width="2"/><path d="M242.09879,174.41739l8.95031,-11.02416l3.02776,2.45818l-8.95031,11.02416z" fill="#ffffff" stroke="#000000" stroke-width="0.5"/><path d="M239.29202,179.22306l4.66424,-5.74498l1.70797,1.38667l-4.66424,5.74498z" fill="#ffffff" stroke="#000000" stroke-width="0.5"/><path d="M247.03254,171.95289c0.08703,-0.10719 0.24447,-0.12354 0.35166,-0.03651c0.10719,0.08703 0.12354,0.24447 0.03651,0.35166c-0.08703,0.10719 -0.24447,0.12354 -0.35166,0.03651c-0.10719,-0.08703 -0.12354,-0.24447 -0.03651,-0.35166z" fill="#ffffff" stroke="none" stroke-width="0.5"/><path d="M242.98971,174.1827c0.03726,-0.0459 0.08744,-0.07514 0.14105,-0.08675c0.00034,-0.05485 0.01865,-0.10997 0.05592,-0.15586c0.03658,-0.04505 0.07255,-0.09012 0.10832,-0.13497c0.02199,-0.29263 0.2862,-0.5792 0.5729,-0.62804c0.02631,-0.02211 0.05329,-0.04373 0.08102,-0.06482c0,0 0.06166,-0.04628 0.1422,-0.0532c0.2769,-0.23448 0.67077,-0.32872 0.85604,0.09799c0.04571,0.10527 0.057,0.21664 0.04146,0.3278c0.24321,0.00068 0.50947,0.02238 0.79099,0.06946c0.34704,0.40192 0.43411,0.73982 0.31906,1.05927c0.01671,0.01363 0.03346,0.02726 0.05027,0.0409c0,0 0.19409,0.15758 0.03651,0.35166c-0.05463,0.06729 -0.11365,0.09231 -0.16745,0.09628c-0.01176,0.00963 -0.01964,0.01466 -0.01964,0.01466c-0.28339,0.17689 -0.43614,0.38802 -0.59806,0.62152c0.00628,0.00422 0.01243,0.00876 0.01842,0.01363c0.10719,0.08703 0.12354,0.24447 0.03651,0.35166c-0.0287,0.03535 -0.06506,0.06083 -0.10476,0.07596c-0.00666,0.04195 -0.02412,0.08277 -0.05282,0.11813c-0.08703,0.10719 -0.24447,0.12354 -0.35166,0.03651c-0.10719,-0.08703 -0.12354,-0.24447 -0.03651,-0.35166c0.02038,-0.0251 0.04462,-0.04522 0.07117,-0.0602l-0.01208,-0.01259l-0.0286,-0.01784l-0.12302,0.09359c0,0 -0.19994,0.15008 -0.35002,-0.04987c-0.15008,-0.19994 0.04987,-0.35002 0.04987,-0.35002l0.18279,-0.13486c0.18085,-0.22486 0.32996,-0.43977 0.52037,-0.61824c-0.28075,-0.19513 -0.56062,-0.38037 -0.87814,-0.52898c-0.17614,0.08955 -0.36394,0.12902 -0.53046,0.09112l-0.0465,0.05727c0,0 -0.14769,0.18191 -0.3332,0.05053c-0.00406,0.01303 -0.00923,0.02583 -0.01553,0.03825c0.02067,0.0089 0.04049,0.02076 0.05883,0.03566c0.02392,0.01942 0.04331,0.04234 0.05804,0.06742c0.084,-0.03914 0.18656,-0.02984 0.26335,0.0325c0.10719,0.08703 0.12354,0.24447 0.03651,0.35166c-0.07485,0.0922 -0.20181,0.11719 -0.30407,0.067c-0.08977,0.07013 -0.21915,0.07175 -0.31134,-0.00311c-0.05089,-0.04132 -0.0813,-0.0985 -0.0899,-0.15865c-0.06582,-0.0766 -0.07875,-0.18592 -0.03334,-0.27554c-0.02067,-0.0089 -0.04049,-0.02076 -0.05883,-0.03566c-0.06599,-0.05358 -0.09755,-0.13384 -0.09176,-0.21263c-0.02185,-0.07592 -0.00746,-0.16096 0.04612,-0.22695zM245.53532,173.99056c-0.05933,-0.00522 -0.133,-0.00128 -0.21626,0.00757c0.11598,0.08302 0.22912,0.16994 0.34157,0.25929c-0.01393,-0.081 -0.05337,-0.16904 -0.12531,-0.26686z" fill="#ffffff" stroke="none" stroke-width="0.5"/><path d="M263.9217,180c0,13.08343 -10.71011,23.68964 -23.9217,23.68964c-13.21159,0 -23.9217,-10.60621 -23.9217,-23.68964c0,-13.08343 10.71011,-23.68964 23.9217,-23.68964c13.21159,0 23.9217,10.60621 23.9217,23.68964z" fill="url(#color-1)" stroke="#000000" stroke-width="0.5"/></g></g></svg>